/* XPM */
static char *AnimationSheet_Character2[] = {
/* columns rows colors chars-per-pixel */
"64 64 6 1 ",
"  c black",
". c #3A0911",
"X c #811426",
"o c #A11B31",
"O c white",
"+ c None",
/* pixels */
"++++++++++++++++++++++++++++++++++++++++++++++++++++++++++++++++",
"++++++++++++++++++++++++++++++++++++++++++++++++++++++++++++++++",
"++++++++++++++++++++++++++++++++++++++++++++++++++++++++++++++++",
"++++++++++++++++++++++++++++++++++++++++++++++++++++++++++++++++",
"++++++++++++++++++++++++++++++++++++++++++++++++++++++++++++++++",
"++++++++++++++++++++++++++++++++++++++++++++++++++++++++++++++++",
"++++++++++++++++++++++++++++++++++++++++++++++++++++++++++++++++",
"++++++++++++++++++++++++++++++++++++++++++++++++++++++++++++++++",
"++++++++++++++++++++++++++++++++++++++++++++++++++++++++++++++++",
"++++++++++++++++++++++++++++++++++++++++++++++++++++++++++++++++",
"++++++++++++++++++++++..............++++++++++++++++++++++++++++",
"++++++++++++++++++++++..............++++++++++++++++++++++++++++",
"++++++++++++++++++++..XXoooooooooooo..++++++++++++++++++++++++++",
"++++++++++++++++++++..XXoooooooooooo..++++++++++++++++++++++++++",
"++++++++++++++++++..XXoooooo........oo..++++++++++++++++++++++++",
"++++++++++++++++++..XXoooooo........oo..++++++++++++++++++++++++",
"++++++++++++++++..XXoooooo..        ..oo..++++++++++++++++++++++",
"++++++++++++++++..XXoooooo..        ..oo..++++++++++++++++++++++",
"++++++++++++++++..XXoooo..            ..oo..++++++++++++++++++++",
"++++++++++++++++..XXoooo..            ..oo..++++++++++++++++++++",
"++++++++++++++..XXXXoooo..            ..oo..++++++++++++++++++++",
"++++++++++++++..XXXXoooo..            ..oo..++++++++++++++++++++",
"++++++++++++++..XXXXXXoo..  OO      OO..oo..++++++++++++++++++++",
"++++++++++++++..XXXXXXoo..  OO      OO..oo..++++++++++++++++++++",
"++++++++++++++..XX..XXoo..  OO      OO..oo..++++++++++++++++++++",
"++++++++++++++..XX..XXoo..  OO      OO..oo..++++++++++++++++++++",
"++++++++++++++..XX..XXoo..            ..XX..++++++++++++++++++++",
"++++++++++++++..XX..XXoo..            ..XX..++++++++++++++++++++",
"++++++++++++++++....XXXXoo..          ..XX..++++++++++++++++++++",
"++++++++++++++++....XXXXoo..          ..XX..++++++++++++++++++++",
"++++++++++++++++++++..XXXXXX..      ..XX..++++++++++++++++++++++",
"++++++++++++++++++++..XXXXXX..      ..XX..++++++++++++++++++++++",
"++++++++++++++++++++++....XXXX......XX..++++++++++++++++++++++++",
"++++++++++++++++++++++....XXXX......XX..++++++++++++++++++++++++",
"++++++++++++++++++++..XXXXXXooooooooooXX..++++++++++++++++++++++",
"++++++++++++++++++++..XXXXXXooooooooooXX..++++++++++++++++++++++",
"++++++++++++++++++..XXooooooooooooooooooXX..++++++++++++++++++++",
"++++++++++++++++++..XXooooooooooooooooooXX..++++++++++++++++++++",
"++++++++++++++++++..XXooooooooooooooooooXX..++++++++++++++++++++",
"++++++++++++++++++..XXooooooooooooooooooXX..++++++++++++++++++++",
"++++++++++++++++++..oooooooooooooooooooooo..++++++++++++++++++++",
"++++++++++++++++++..oooooooooooooooooooooo..++++++++++++++++++++",
"++++++++++++++++..XXoooooooooooooooooooooo..++++++++++++++++++++",
"++++++++++++++++..XXoooooooooooooooooooooo..++++++++++++++++++++",
"++++++++++++++++..XXooooooooooooXXooooooooXX..++++++++++++++++++",
"++++++++++++++++..XXooooooooooooXXooooooooXX..++++++++++++++++++",
"++++++++++++++++..XXooooooooooooXXooooooooXX..++++++++++++++++++",
"++++++++++++++++..XXooooooooooooXXooooooooXX..++++++++++++++++++",
"++++++++++++++++..XXooooooooooXX..XXooooXXXX..++++++++++++++++++",
"++++++++++++++++..XXooooooooooXX..XXooooXXXX..++++++++++++++++++",
"++++++++++++++..XXXXXXooXXooXXXX..XXXXooXXXX..++++++++++++++++++",
"++++++++++++++..XXXXXXooXXooXXXX..XXXXooXXXX..++++++++++++++++++",
"++++++++++++++..XXXXXXXXooXXXX..  ..XXXXXXXX..++++++++++++++++++",
"++++++++++++++..XXXXXXXXooXXXX..  ..XXXXXXXX..++++++++++++++++++",
"++++++++++++++..XX..XXXXXXXX..    ..XXXX..XX..++++++++++++++++++",
"++++++++++++++..XX..XXXXXXXX..    ..XXXX..XX..++++++++++++++++++",
"++++++++++++++++....XX..XXXX..      ..XXXX..++++++++++++++++++++",
"++++++++++++++++....XX..XXXX..      ..XXXX..++++++++++++++++++++",
"++++++++++++++++++....++......++++  ......++++++++++++++++++++++",
"++++++++++++++++++....++......++++  ......++++++++++++++++++++++",
"++++++++++++++++++++++++++++  ++++++++  ++++++++++++++++++++++++",
"++++++++++++++++++++++++++++  ++++++++  ++++++++++++++++++++++++",
"++++++++++++++++++++++++++  ++++++++  ++++++++++++++++++++++++++",
"++++++++++++++++++++++++++  ++++++++  ++++++++++++++++++++++++++"
};
