/* XPM */
static char *collectible[] = {
/* columns rows colors chars-per-pixel */
"64 64 12 1 ",
"  c black",
". c #5E0D0D",
"X c #663931",
"o c #76422A",
"O c #850A0A",
"+ c #B10000",
"@ c #8F563B",
"# c gray52",
"$ c #8DA4B8",
"% c #C9EDFF",
"& c white",
"* c None",
/* pixels */
"****************************************************************",
"****************************************************************",
"****************************************************************",
"****************************************************************",
"****************************************************************",
"****************************************************************",
"**************************            **************************",
"**************************            **************************",
"************************  XXXXXXXXXXXX  ************************",
"************************  XXXXXXXXXXXX  ************************",
"************************  ooXXXXXXXX@@  ************************",
"************************  ooXXXXXXXX@@  ************************",
"************************  @@oo@@oo@@oo  ************************",
"************************  @@oo@@oo@@oo  ************************",
"****************    ****    @@oo@@oo    ************************",
"****************    ****    @@oo@@oo    ************************",
"**************  @@@@    %%%%%%%%&&&&&&%%  **********************",
"**************  @@@@    %%%%%%%%&&&&&&%%  **********************",
"************  oo    @@  &&@@@@@@@@@@@@&&  **********************",
"************  oo    @@  &&@@@@@@@@@@@@&&  **********************",
"**************  oo@@  oo@@&&$$$$$$$$&&  ************************",
"**************  oo@@  oo@@&&$$$$$$$$&&  ************************",
"****************  @@@@  oo@@@@@@@@@@@@  ************************",
"****************  @@@@  oo@@@@@@@@@@@@  ************************",
"**************  oo    @@  %%%%%%%%%%&&  ************************",
"**************  oo    @@  %%%%%%%%%%&&  ************************",
"**************  oooo@@  %%%%........&&&&  **********************",
"**************  oooo@@  %%%%........&&&&  **********************",
"****************  oo    %%............&&  **********************",
"****************  oo    %%............&&  **********************",
"******************    %%OO++........++++&&  ********************",
"******************    %%OO++........++++&&  ********************",
"********************  $$++OO++++++++++++&&  ********************",
"********************  $$++OO++++++++++++&&  ********************",
"******************  $$..OO++++++++%%++++++&&  ******************",
"******************  $$..OO++++++++%%++++++&&  ******************",
"****************  $$....OO++++++++++%%++++++&&  ****************",
"****************  $$....OO++++++++++%%++++++&&  ****************",
"**************  $$....OO++++++++++++++&&++++++%%  **************",
"**************  $$....OO++++++++++++++&&++++++%%  **************",
"**************  ##..OO++OO++++++++++++&&%%++++%%  **************",
"**************  ##..OO++OO++++++++++++&&%%++++%%  **************",
"************  ##....OOOO++++++++++++++++%%++++++%%  ************",
"************  ##....OOOO++++++++++++++++%%++++++%%  ************",
"************  ##....OOOO++OO++++++++++++%%++++++%%  ************",
"************  ##....OOOO++OO++++++++++++%%++++++%%  ************",
"************  ##......OOOO++OO++++++++++++++++OO%%  ************",
"************  ##......OOOO++OO++++++++++++++++OO%%  ************",
"************  ##......OOOOOO++OO++++++++++++++OO%%  ************",
"************  ##......OOOOOO++OO++++++++++++++OO%%  ************",
"**************  ##......OOOOOO++OO++OO++OO++OO%%  **************",
"**************  ##......OOOOOO++OO++OO++OO++OO%%  **************",
"**************  ##++......OOOOOOOOOO++OO++OO++%%  **************",
"**************  ##++......OOOOOOOOOO++OO++OO++%%  **************",
"****************  ##++........OOOOOOOOOOOO++%%  ****************",
"****************  ##++........OOOOOOOOOOOO++%%  ****************",
"******************  ##++++................%%  ******************",
"******************  ##++++................%%  ******************",
"********************  ####++++++++....$$$$  ********************",
"********************  ####++++++++....$$$$  ********************",
"**********************    ######$$$$$$    **********************",
"**********************    ######$$$$$$    **********************",
"**************************            **************************",
"**************************            **************************"
};
