/* XPM */
static char *death3[] = {
/* columns rows colors chars-per-pixel */
"64 64 5 1 ",
"  c black",
". c #3A0911",
"X c #811426",
"o c #A11B31",
"O c None",
/* pixels */
"OOOOOOOOOOOOOOOOOOOOOOOOOOOOOOOOOOOOOOOOOOOOOOOOOOOOOOOOOOOOOOOO",
"OOOOOOOOOOOOOOOOOOOOOOOOOOOOOOOOOOOOOOOOOOOOOOOOOOOOOOOOOOOOOOOO",
"OOOOOOOOOOOOOOOOOOOOOOOOOOOOOOOOOOOOOOOOOOOOOOOOOOOOOOOOOOOOOOOO",
"OOOOOOOOOOOOOOOOOOOOOOOOOOOOOOOOOOOOOOOOOOOOOOOOOOOOOOOOOOOOOOOO",
"OOOOOOOOOOOOOOOOOOOOOOOOOOOOOOOOOOOOOOOOOOOOOOOOOOOOOOOOOOOOOOOO",
"OOOOOOOOOOOOOOOOOOOOOOOOOOOOOOOOOOOOOOOOOOOOOOOOOOOOOOOOOOOOOOOO",
"OOOOOOOOOOOOOOOOOOOOOOOOOOOOOOOOOOOOOOOOOOOOOOOOOOOOOOOOOOOOOOOO",
"OOOOOOOOOOOOOOOOOOOOOOOOOOOOOOOOOOOOOOOOOOOOOOOOOOOOOOOOOOOOOOOO",
"OOOOOOOOOOOOOOOOOOOOOOOOOOOOOOOOOOOOOOOOOOOOOOOOOOOOOOOOOOOOOOOO",
"OOOOOOOOOOOOOOOOOOOOOOOOOOOOOOOOOOOOOOOOOOOOOOOOOOOOOOOOOOOOOOOO",
"OOOOOOOOOOOOOOOOOOOOOOOOOOOOOOOOOOOOOOOOOOOOOOOOOOOOOOOOOOOOOOOO",
"OOOOOOOOOOOOOOOOOOOOOOOOOOOOOOOOOOOOOOOOOOOOOOOOOOOOOOOOOOOOOOOO",
"OOOOOOOOOOOOOOOOOOOOOOOOOOOOOOOOOOOOOOOOOOOOOOOOOOOOOOOOOOOOOOOO",
"OOOOOOOOOOOOOOOOOOOOOOOOOOOOOOOOOOOOOOOOOOOOOOOOOOOOOOOOOOOOOOOO",
"OOOOOOOOOOOOOOOOOOOOOOOOOOOOOOOOOOOOOOOOOOOOOOOOOOOOOOOOOOOOOOOO",
"OOOOOOOOOOOOOOOOOOOOOOOOOOOOOOOOOOOOOOOOOOOOOOOOOOOOOOOOOOOOOOOO",
"OOOOOOOOOOOOOOOOOOOOOOOOOOOOOOOOOOOOOOOOOOOOOOOOOOOOOOOOOOOOOOOO",
"OOOOOOOOOOOOOOOOOOOOOOOOOOOOOOOOOOOOOOOOOOOOOOOOOOOOOOOOOOOOOOOO",
"OOOOOOOOOOOOOOOOOOOOOOOOOOOOOOOOOOOOOOOOOOOOOOOOOOOOOOOOOOOOOOOO",
"OOOOOOOOOOOOOOOOOOOOOOOOOOOOOOOOOOOOOOOOOOOOOOOOOOOOOOOOOOOOOOOO",
"OOOOOOOOOOOOOOOOOOOOOOOOOOOOOOOOOOOOOOOOOOOOOOOOOOOOOOOOOOOOOOOO",
"OOOOOOOOOOOOOOOOOOOOOOOOOOOOOOOOOOOOOOOOOOOOOOOOOOOOOOOOOOOOOOOO",
"OOOOOOOOOOOOOOOOOOOOOOOOOOOOOOOOOOOOOOOOOOOOOOOOOOOOOOOOOOOOOOOO",
"OOOOOOOOOOOOOOOOOOOOOOOOOOOOOOOOOOOOOOOOOOOOOOOOOOOOOOOOOOOOOOOO",
"OOOOOOOOOOOOOOOOOOOOOOOOOOOOOOOOOOOOOOOOOOOOOOOOOOOOOOOOOOOOOOOO",
"OOOOOOOOOOOOOOOOOOOOOOOOOOOOOOOOOOOOOOOOOOOOOOOOOOOOOOOOOOOOOOOO",
"OOOOOOOOOOOOOOOOOOOOOOOOOOOOOOOOOOOOOOOOOOOOOOOOOOOOOOOOOOOOOOOO",
"OOOOOOOOOOOOOOOOOOOOOOOOOOOOOOOOOOOOOOOOOOOOOOOOOOOOOOOOOOOOOOOO",
"OOOOOOOOOOOOOOOOOOOOOOOOOOOOOOOOOOOOOOOOOOOOOOOOOOOOOOOOOOOOOOOO",
"OOOOOOOOOOOOOOOOOOOOOOOOOOOOOOOOOOOOOOOOOOOOOOOOOOOOOOOOOOOOOOOO",
"OOOOOOOOOOOOOOOOOOOOOOOOOOOOOOOOOO..............OOOOOOOOOOOOOOOO",
"OOOOOOOOOOOOOOOOOOOOOOOOOOOOOOOOOO..............OOOOOOOOOOOOOOOO",
"OOOOOOOOOOOOOOOOOOOOOOOOOOOO......XXoooooooooooo..OOOOOOOOOOOOOO",
"OOOOOOOOOOOOOOOOOOOOOOOOOOOO......XXoooooooooooo..OOOOOOOOOOOOOO",
"OOOOOOOOOOOOOOOOOOOOOOOOOO..oo..XXoooooooooooooooo..OOOOOOOOOOOO",
"OOOOOOOOOOOOOOOOOOOOOOOOOO..oo..XXoooooooooooooooo..OOOOOOOOOOOO",
"OOOOOOOOOOOOOOOOOOOOOOOOOO..ooXXoooooooooooooooooooo..OOOOOOOOOO",
"OOOOOOOOOOOOOOOOOOOOOOOOOO..ooXXoooooooooooooooooooo..OOOOOOOOOO",
"OOOOOOOOOOOOOOOOOOOOOOOOOO..XXXXoooooooo..........oooo..OOOOOOOO",
"OOOOOOOOOOOOOOOOOOOOOOOOOO..XXXXoooooooo..........oooo..OOOOOOOO",
"OOOOOOOOOOOOOOOOOOOOOOOO....XXXXoooooo..          ..oo..OOOOOOOO",
"OOOOOOOOOOOOOOOOOOOOOOOO....XXXXoooooo..          ..oo..OOOOOOOO",
"OOOOOOOOOOOOOOOOOOOO....oooo..XXXXoo..            ..oo..OOOOOOOO",
"OOOOOOOOOOOOOOOOOOOO....oooo..XXXXoo..            ..oo..OOOOOOOO",
"OOOOOOOOOOOOOOOOOO..oooooooooo..XXoo..            ..oo..OOOOOOOO",
"OOOOOOOOOOOOOOOOOO..oooooooooo..XXoo..            ..oo..OOOOOOOO",
"OOOOOOOOOOOOOOOOOO..oooooooooo..XXoo..            ..XX..OOOOOOOO",
"OOOOOOOOOOOOOOOOOO..oooooooooo..XXoo..            ..XX..OOOOOOOO",
"OOOOOOOOOOOOOOOO..XXoooooooooo..XXXXoo..          ..XX..OOOOOOOO",
"OOOOOOOOOOOOOOOO..XXoooooooooo..XXXXoo..          ..XX..OOOOOOOO",
"OOOOOOOOOOOOOOOO..XXooooooooooXX..XXXXXX..      ..XX..OOOOOOOOOO",
"OOOOOOOOOOOOOOOO..XXooooooooooXX..XXXXXX..      ..XX..OOOOOOOOOO",
"OOOOOOOOOOOOOOOO..XXooooooooooooXX....XXXX......XX..OOOOOOOOOOOO",
"OOOOOOOOOOOOOOOO..XXooooooooooooXX....XXXX......XX..OOOOOOOOOOOO",
"OOOOOOOOOOOOOO..XXXXooooooooooooooooooooooooXXXX..OOOOOOOOOOOOOO",
"OOOOOOOOOOOOOO..XXXXooooooooooooooooooooooooXXXX..OOOOOOOOOOOOOO",
"OOOOOOOOOOOOOO..XXXXooooooooooooooooooooooooXX..OOOOOOOOOOOOOOOO",
"OOOOOOOOOOOOOO..XXXXooooooooooooooooooooooooXX..OOOOOOOOOOOOOOOO",
"OOOOOOOOOOOOOO..XXXXXXooooXXooXXoooooooooooo..OOOOOOOOOOOOOOOOOO",
"OOOOOOOOOOOOOO..XXXXXXooooXXooXXoooooooooooo..OOOOOOOOOOOOOOOOOO",
"OOOOOOOOOOOOOOOO..XXXXXXXXooXXXXXXXXXXooXXXX..OOOOOOOOOOOOOOOOOO",
"OOOOOOOOOOOOOOOO..XXXXXXXXooXXXXXXXXXXooXXXX..OOOOOOOOOOOOOOOOOO",
"OOOOOOOOOOOOOO    ..........................OOOOOOOOOOOOOOOOOOOO",
"OOOOOOOOOOOOOO    ..........................OOOOOOOOOOOOOOOOOOOO"
};
