/* XPM */
static char *death2[] = {
/* columns rows colors chars-per-pixel */
"64 64 6 1 ",
"  c black",
". c #3A0911",
"X c #811426",
"o c #A11B31",
"O c white",
"+ c None",
/* pixels */
"++++++++++++++++++++++++++++++++++++++++++++++++++++++++++++++++",
"++++++++++++++++++++++++++++++++++++++++++++++++++++++++++++++++",
"++++++++++++++++++++++++++++++++++++++++++++++++++++++++++++++++",
"++++++++++++++++++++++++++++++++++++++++++++++++++++++++++++++++",
"++++++++++++++++++++++++++++++++++++++++++++++++++++++++++++++++",
"++++++++++++++++++++++++++++++++++++++++++++++++++++++++++++++++",
"++++++++++++++++++++++++++++++++++++++++++++++++++++++++++++++++",
"++++++++++++++++++++++++++++++++++++++++++++++++++++++++++++++++",
"++++++++++++++++++++++++++++++++++++++++++++++++++++++++++++++++",
"++++++++++++++++++++++++++++++++++++++++++++++++++++++++++++++++",
"++++++++++++++++++++++++++++++++++++++++++++++++++++++++++++++++",
"++++++++++++++++++++++++++++++++++++++++++++++++++++++++++++++++",
"++++++++++++++++++++++++++++++++++++++++++++++++++++++++++++++++",
"++++++++++++++++++++++++++++++++++++++++++++++++++++++++++++++++",
"++++++++++++++++++++++++++++++++++++++++++++++++++++++++++++++++",
"++++++++++++++++++++++++++++++++++++++++++++++++++++++++++++++++",
"++++++++++++++++++++++++++++++++++++++++++++++++++++++++++++++++",
"++++++++++++++++++++++++++++++++++++++++++++++++++++++++++++++++",
"++++++++++++++++++++++++++..............++++++++++++++++++++++++",
"++++++++++++++++++++++++++..............++++++++++++++++++++++++",
"++++++++++++++++++++++++..XXoooooooooooo..++++++++++++++++++++++",
"++++++++++++++++++++++++..XXoooooooooooo..++++++++++++++++++++++",
"++++++++++++++++++......XXoooooo........oo..++++++++++++++++++++",
"++++++++++++++++++......XXoooooo........oo..++++++++++++++++++++",
"++++++++++++++++..XXXXXXoooooo..        ..oo..++++++++++++++++++",
"++++++++++++++++..XXXXXXoooooo..        ..oo..++++++++++++++++++",
"++++++++++++++++..XXXXXXoooo..            ..oo..++++++++++++++++",
"++++++++++++++++..XXXXXXoooo..            ..oo..++++++++++++++++",
"++++++++++++++++++..XXXXoooo..            ..oo..++++++++++++++++",
"++++++++++++++++++..XXXXoooo..            ..oo..++++++++++++++++",
"++++++++++++++++++++..XXXXoo..            ..oo..++++++++++++++++",
"++++++++++++++++++++..XXXXoo..            ..oo..++++++++++++++++",
"++++++++++++++++++++++..XXoo..  OO      OO..oo..++++++++++++++++",
"++++++++++++++++++++++..XXoo..  OO      OO..oo..++++++++++++++++",
"++++++++++++++++++++++..XXoo..            ..XX..++++++++++++++++",
"++++++++++++++++++++++..XXoo..            ..XX..++++++++++++++++",
"++++++++++++++++++++++..XXXXoo..          ..XX..++++++++++++++++",
"++++++++++++++++++++++..XXXXoo..          ..XX..++++++++++++++++",
"++++++++++++++++++++......XXXXXX..      ..XX..++++++++++++++++++",
"++++++++++++++++++++......XXXXXX..      ..XX..++++++++++++++++++",
"++++++++++++++++++..XXoooo....XXXX......XX....++++++++++++++++++",
"++++++++++++++++++..XXoooo....XXXX......XX....++++++++++++++++++",
"++++++++++++++++++..oooooooooooooooooooooo..++++++++++++++++++++",
"++++++++++++++++++..oooooooooooooooooooooo..++++++++++++++++++++",
"++++++++++++++++..ooooooooooooooooooooooXX..++++++++++++++++++++",
"++++++++++++++++..ooooooooooooooooooooooXX..++++++++++++++++++++",
"++++++++++++++++..XXooooooooooXXooooooooXX..++++++++++++++++++++",
"++++++++++++++++..XXooooooooooXXooooooooXX..++++++++++++++++++++",
"++++++++++++++++..XXooooooooooooXXoooooooo..++++++++++++++++++++",
"++++++++++++++++..XXooooooooooooXXoooooooo..++++++++++++++++++++",
"++++++++++++++..XXXXooooooooooXX..XXooooXXXX..++++++++++++++++++",
"++++++++++++++..XXXXooooooooooXX..XXooooXXXX..++++++++++++++++++",
"++++++++++++++..XXXXXXooXXooXXXX..XXXXooXXXX..++++++++++++++++++",
"++++++++++++++..XXXXXXooXXooXXXX..XXXXooXXXX..++++++++++++++++++",
"++++++++++++++..XXXXXXXXooXXXX..  ..XXXXXXXX..++++++++++++++++++",
"++++++++++++++..XXXXXXXXooXXXX..  ..XXXXXXXX..++++++++++++++++++",
"++++++++++++++++..XXXXXXXXXX..    ..XXXX....++++++++++++++++++++",
"++++++++++++++++..XXXXXXXXXX..    ..XXXX....++++++++++++++++++++",
"++++++++++++++++++......XXXX..      ....XX..++++++++++++++++++++",
"++++++++++++++++++......XXXX..      ....XX..++++++++++++++++++++",
"++++++++++++++++++++++  ....++++++      ..++++++++++++++++++++++",
"++++++++++++++++++++++  ....++++++      ..++++++++++++++++++++++",
"++++++++++++++++++    ++++++++    ++++++++++++++++++++++++++++++",
"++++++++++++++++++    ++++++++    ++++++++++++++++++++++++++++++"
};
