/* XPM */
static char *death1[] = {
/* columns rows colors chars-per-pixel */
"64 64 6 1 ",
"  c black",
". c #3A0911",
"X c #811426",
"o c #A11B31",
"O c white",
"+ c None",
/* pixels */
"++++++++++++++++++++++++++++++++++++++++++++++++++++++++++++++++",
"++++++++++++++++++++++++++++++++++++++++++++++++++++++++++++++++",
"++++++++++++++++++++++++++++++++++++++++++++++++++++++++++++++++",
"++++++++++++++++++++++++++++++++++++++++++++++++++++++++++++++++",
"++++++++++++++++++++++++++++++++++++++++++++++++++++++++++++++++",
"++++++++++++++++++++++++++++++++++++++++++++++++++++++++++++++++",
"++++++++++++++++++++++++++++++++++++++++++++++++++++++++++++++++",
"++++++++++++++++++++++++++++++++++++++++++++++++++++++++++++++++",
"++++++++++++++++++++++++++++++++++++++++++++++++++++++++++++++++",
"++++++++++++++++++++++++++++++++++++++++++++++++++++++++++++++++",
"++++++++++++++++++++++++++++++++++++++++++++++++++++++++++++++++",
"++++++++++++++++++++++++++++++++++++++++++++++++++++++++++++++++",
"++++++++++++++++++++++++++++++++++++++++++++++++++++++++++++++++",
"++++++++++++++++++++++++++++++++++++++++++++++++++++++++++++++++",
"++++++++++++++++++++++..............++++++++++++++++++++++++++++",
"++++++++++++++++++++++..............++++++++++++++++++++++++++++",
"++++++++++++++++++++..XXoooooooooooo..++++++++++++++++++++++++++",
"++++++++++++++++++++..XXoooooooooooo..++++++++++++++++++++++++++",
"++++++++++++++++++..XXoooooo........oo..++++++++++++++++++++++++",
"++++++++++++++++++..XXoooooo........oo..++++++++++++++++++++++++",
"++++++++++++++++..XXoooooo..        ..oo..++++++++++++++++++++++",
"++++++++++++++++..XXoooooo..        ..oo..++++++++++++++++++++++",
"++++++++++++++..XXXXoooo..            ..oo..++++++++++++++++++++",
"++++++++++++++..XXXXoooo..            ..oo..++++++++++++++++++++",
"++++++++++++..XXXXXXoooo..            ..oo..++++++++++++++++++++",
"++++++++++++..XXXXXXoooo..            ..oo..++++++++++++++++++++",
"++++++++++++..XXXXXXXXoo..  OO      OO..oo..++++++++++++++++++++",
"++++++++++++..XXXXXXXXoo..  OO      OO..oo..++++++++++++++++++++",
"++++++++++++++......XXoo..  OO      OO..oo..++++++++++++++++++++",
"++++++++++++++......XXoo..  OO      OO..oo..++++++++++++++++++++",
"++++++++++++++++++..XXoo..            ..XX..++++++++++++++++++++",
"++++++++++++++++++..XXoo..            ..XX..++++++++++++++++++++",
"++++++++++++++++++..XXXXoo..          ..XX..++++++++++++++++++++",
"++++++++++++++++++..XXXXoo..          ..XX..++++++++++++++++++++",
"++++++++++++++++++....XXXXXX..      ..XX..++++++++++++++++++++++",
"++++++++++++++++++....XXXXXX..      ..XX..++++++++++++++++++++++",
"++++++++++++++++..XXXX....XXXX......XX....++++++++++++++++++++++",
"++++++++++++++++..XXXX....XXXX......XX....++++++++++++++++++++++",
"++++++++++++++++..XXooooooooooooooooooXX..++++++++++++++++++++++",
"++++++++++++++++..XXooooooooooooooooooXX..++++++++++++++++++++++",
"++++++++++++++++..oooooooooooooooooooooo..++++++++++++++++++++++",
"++++++++++++++++..oooooooooooooooooooooo..++++++++++++++++++++++",
"++++++++++++++..ooooooooooooooooooooooXX..++++++++++++++++++++++",
"++++++++++++++..ooooooooooooooooooooooXX..++++++++++++++++++++++",
"++++++++++++++..XXooooooooooXXooooooooXX..++++++++++++++++++++++",
"++++++++++++++..XXooooooooooXXooooooooXX..++++++++++++++++++++++",
"++++++++++++++..XXooooooooooooXXooooooooXX..++++++++++++++++++++",
"++++++++++++++..XXooooooooooooXXooooooooXX..++++++++++++++++++++",
"++++++++++++++..XXooooooooooXX..XXooooXXXXXX..++++++++++++++++++",
"++++++++++++++..XXooooooooooXX..XXooooXXXXXX..++++++++++++++++++",
"++++++++++++++..XXXXooXXooXXXX..XXXXooXXXXXX..++++++++++++++++++",
"++++++++++++++..XXXXooXXooXXXX..XXXXooXXXXXX..++++++++++++++++++",
"++++++++++++++..XXXXXXooXXXX..  ..XXXXXXXXXX..++++++++++++++++++",
"++++++++++++++..XXXXXXooXXXX..  ..XXXXXXXXXX..++++++++++++++++++",
"++++++++++++++..XXXXXXXXXX..    ..XXXX..XX..++++++++++++++++++++",
"++++++++++++++..XXXXXXXXXX..    ..XXXX..XX..++++++++++++++++++++",
"++++++++++++++++......XXXX..      ....XX..++++++++++++++++++++++",
"++++++++++++++++......XXXX..      ....XX..++++++++++++++++++++++",
"++++++++++++++++++++++....  ++++++    ..++++++++++++++++++++++++",
"++++++++++++++++++++++....  ++++++    ..++++++++++++++++++++++++",
"++++++++++++++++++++++++  ++++++++    ++++++++++++++++++++++++++",
"++++++++++++++++++++++++  ++++++++    ++++++++++++++++++++++++++",
"++++++++++++++++++++++  ++++++++  ++++++++++++++++++++++++++++++",
"++++++++++++++++++++++  ++++++++  ++++++++++++++++++++++++++++++"
};
