/* XPM */
static char *open[] = {
/* columns rows colors chars-per-pixel */
"46 56 12 1 ",
"  c #6E5967",
". c #926475",
"X c #AD707B",
"o c #D2727E",
"O c #5D7889",
"+ c #728896",
"@ c #86A0A8",
"# c #E28989",
"$ c #EDA799",
"% c #FBCAAE",
"& c #FAEBCF",
"* c None",
/* pixels */
"*********                            *********",
"*******  %$ $%%%&%&&%$ $%%%&%&&&%$ $%  *******",
"*****  $%%% %%%%%%%%%% %%%%%%%%%%% %%%$  *****",
"**** $&&%%% %%%%%%%%%% %%%%%%%%%%% %%%&&$ ****",
"*** $&%%%%$ $%%%%%%%%$ $%%%%%%%%%$ $%%%%&$ ***",
"** $&%%%$## ########## ########### ##$%%%&$ **",
"** %%%%$##o                        o##$%%%% **",
"* $%%%$##   X.                 XXX   ##$%%%$ *",
"* %%%%##   .XX                 .XX.   ##%%%% *",
" $%%%$#                                #$%%%$ ",
" %%%%##  .XXX.                         ##%%%% ",
" %%%%#  .XXXXX                  XXXXX.  #%%%% ",
" $%%$#  XXXXX.    O             .XXXXX  #$%%$ ",
"                  O                           ",
" $%%$#   .XXXXX.  O            .XXXX.   #$%%$ ",
" %%%%# @O XXXXXX               XXXXX O@ #%%%% ",
" &%%%# @+ XXXXXX  O            XXXXX +@ #%%%& ",
" &%%%#   .XXXXXX               XXXXX.   #%%%& ",
" %%%%# .XXXXXXX.  O            .XXXXXX. #%%%% ",
" &%%%#            O                     #%%%& ",
" %%%%#            O           .XXXXXXX. #%%%% ",
" %%%%# .XXXXXX.   O           XXXXXXXXX #%%%% ",
" %%%%# XXXXXXXX   O           XXXXXXXXX #%%%% ",
" $%%$# .XXXXXX.   O           .XXXXXXX. #$%%$ ",
"                  O                           ",
" $%%$# .XXXX.     O              .XXXX. #$%%$ ",
" %%%%# XXXXXX     O              XXXXXX #%%%% ",
" &%%%# XXXXXX                    XXXXXX #%%%& ",
" &%%%# .XXXX.   ++           ++  .XXXX. #%%%& ",
" %%%%#          O+           +O         #%%%% ",
" &%%%#          O+           +O   .XXX. #%%%& ",
" %%%%#  .XXXX.  O+           +O   XXXXX #%%%% ",
" %%%%#  XXXXXX  O+           +O   XXXXX #%%%% ",
" %%%%#  .XXXX.  O+           +O   .XXX. #%%%% ",
" $%%$#          O+           +O         #$%%$ ",
"       .XXXXX.  O+           +O               ",
" $%%$# XXXXXXX  O+           +O   .XX.  #$%%$ ",
" %%%%# XXXXXXX  O+           +O   XXXX  #%%%% ",
" &%%%# .XXXXX.  O+           +O   .XX.  #%%%& ",
" &%%%#          O+           +O         #%%%& ",
" %%%%# .XXXXX.  O+           +O  .XXXX. #%%%% ",
" &%%%#   .XXXX                   XXX.   #%%%& ",
" %%%%# @+ XXXX                   XXX +@ #%%%% ",
" %%%%# @O XXXX    O              XXX O@ #%%%% ",
" %%%%#   .XXX.    O              .XX.   #%%%% ",
" $%%$#            O                     #$%%$ ",
"       .XXXXXX.   O            .XXXXXX.       ",
" $%%$# XXXXXXXX                XXXXXXXX #$%%$ ",
" %%%%# .XXXXXX.   O            XXXXXXXX #%%%% ",
" &%%%#            O            .XXXXXX. #%%%& ",
" &%%%#            O                     #%%%& ",
" %%%%# .XXXXXXX.  O                     #%%%% ",
" $%%$# XXXXXXXXX  O             .XXXXX  #$%%$ ",
" ####o .XXXXXXX.  O             XXXXX.  o#### ",
"                                              ",
"                                              "
};
