/* XPM */
static char *tiles1[] = {
/* columns rows colors chars-per-pixel */
"64 64 13 1 ",
"  c #3F3851",
". c #584B57",
"X c #89365C",
"o c #9E3B57",
"O c #AE444E",
"+ c #BF5753",
"@ c #D25654",
"# c #CD7363",
"$ c #E27F6D",
"% c #EDA27F",
"& c #FBCA97",
"* c #FFEAB7",
"= c #FFFAD6",
/* pixels */
"..                                                            ..",
"..                                                            ..",
"  %%&&**==****&&%%  $$%%&&****==****&&&&%%$$  %%&&****==**&&%%  ",
"  %%&&**==****&&%%  $$%%&&****==****&&&&%%$$  %%&&****==**&&%%  ",
"  &&&&&&&&&&&&&&&&  $$&&&&&&&&&&&&&&&&&&&&$$  &&&&&&&&&&&&&&&&  ",
"  &&&&&&&&&&&&&&&&  $$&&&&&&&&&&&&&&&&&&&&$$  &&&&&&&&&&&&&&&&  ",
"  &&&&&&&&&&&&&&&&  $$&&&&&&&&&&&&&&&&&&&&$$  &&&&&&&&&&&&&&&&  ",
"  &&&&&&&&&&&&&&&&  $$&&&&&&&&&&&&&&&&&&&&$$  &&&&&&&&&&&&&&&&  ",
"  &&&&&&&&&&&&&&&&  $$%%&&&&&&&&&&&&&&&&%%$$  &&&&&&&&&&&&&&&&  ",
"  &&&&&&&&&&&&&&&&  $$%%&&&&&&&&&&&&&&&&%%$$  &&&&&&&&&&&&&&&&  ",
"  %%&&&&&&&&&&&&%%  $$$$%%&&&&&&&&&&&&%%$$$$  %%&&&&&&&&&&&&%%  ",
"  %%&&&&&&&&&&&&%%  $$$$%%&&&&&&&&&&&&%%$$$$  %%&&&&&&&&&&&&%%  ",
"  $$%%&&&&&&&&%%$$  $$$$$$$$$$$$$$$$$$$$$$$$  $$%%&&&&&&&&%%$$  ",
"  $$%%&&&&&&&&%%$$  $$$$$$$$$$$$$$$$$$$$$$$$  $$%%&&&&&&&&%%$$  ",
"  $$$$$$$$$$$$$$$$  @@$$$$$$$$$$$$$$$$$$$$@@  $$$$$$$$$$$$$$$$  ",
"  $$$$$$$$$$$$$$$$  @@$$$$$$$$$$$$$$$$$$$$@@  $$$$$$$$$$$$$$$$  ",
"  @@$$$$$$$$$$$$@@                            @@$$$$$$$$$$$$@@  ",
"  @@$$$$$$$$$$$$@@                            @@$$$$$$$$$$$$@@  ",
"                                                                ",
"                                                                ",
"  $$$$$$$$$$$$@@      XXooOOooXX  XXooOOooXX    @@$$$$$$$$$$##  ",
"  $$$$$$$$$$$$@@      XXooOOooXX  XXooOOooXX    @@$$$$$$$$$$##  ",
"  %%&&&&%%$$$$$$      ooOOOOOOoo  ooOOOOOOoo    $$$$$$%%&&&&%%  ",
"  %%&&&&%%$$$$$$      ooOOOOOOoo  ooOOOOOOoo    $$$$$$%%&&&&%%  ",
"  &&&&&&&&%%$$$$                                $$$$%%&&&&&&&&  ",
"  &&&&&&&&%%$$$$                                $$$$%%&&&&&&&&  ",
"  &&&&&&&&%%$$$$        XXOO++####++OOXX        $$$$%%&&&&&&&&  ",
"  &&&&&&&&%%$$$$        XXOO++####++OOXX        $$$$%%&&&&&&&&  ",
"  ==&&&&&&&&$$$$        OOOO########OOOO        $$$$&&&&&&&&==  ",
"  ==&&&&&&&&$$$$        OOOO########OOOO        $$$$&&&&&&&&==  ",
"  **&&&&&&&&$$$$        XXOO++####++OOXX        $$$$&&&&&&&&**  ",
"  **&&&&&&&&$$$$        XXOO++####++OOXX        $$$$&&&&&&&&**  ",
"  &&&&&&&&&&$$$$                                $$$$&&&&&&&&&&  ",
"  &&&&&&&&&&$$$$                                $$$$&&&&&&&&&&  ",
"  **&&&&&&&&$$$$    XXOOOOOO++OO  ++OOOOOOXX    $$$$&&&&&&&&**  ",
"  **&&&&&&&&$$$$    XXOOOOOO++OO  ++OOOOOOXX    $$$$&&&&&&&&**  ",
"  &&&&&&&&%%$$$$    OOOOOOOO####  ##OOOOOOOO    $$$$%%&&&&&&&&  ",
"  &&&&&&&&%%$$$$    OOOOOOOO####  ##OOOOOOOO    $$$$%%&&&&&&&&  ",
"  &&&&&&&&%%$$$$    XXOOOOOO++OO  ++OOOOOOXX    $$$$%%&&&&&&&&  ",
"  &&&&&&&&%%$$$$    XXOOOOOO++OO  ++OOOOOOXX    $$$$%%&&&&&&&&  ",
"  %%&&&&%%$$$$$$                                $$$$$$%%&&&&%%  ",
"  %%&&&&%%$$$$$$                                $$$$$$%%&&&&%%  ",
"  $$$$$$$$$$$$@@        XXOOOOOOOOOOOOXX        @@$$$$$$$$$$##  ",
"  $$$$$$$$$$$$@@        XXOOOOOOOOOOOOXX        @@$$$$$$$$$$##  ",
"                                                                ",
"                                                                ",
"  @@$$$$$$$$$$$$@@                            @@$$$$$$$$$$$$@@  ",
"  @@$$$$$$$$$$$$@@                            @@$$$$$$$$$$$$@@  ",
"  $$$$$$$$$$$$$$$$  @@$$$$$$$$$$$$$$$$$$$$@@  $$$$$$$$$$$$$$$$  ",
"  $$$$$$$$$$$$$$$$  @@$$$$$$$$$$$$$$$$$$$$@@  $$$$$$$$$$$$$$$$  ",
"  $$%%&&&&&&&&%%$$  $$$$$$$$$$$$$$$$$$$$$$$$  $$%%&&&&&&&&%%$$  ",
"  $$%%&&&&&&&&%%$$  $$$$$$$$$$$$$$$$$$$$$$$$  $$%%&&&&&&&&%%$$  ",
"  %%&&&&&&&&&&&&%%  $$$$%%&&&&&&&&&&&&%%$$$$  %%&&&&&&&&&&&&%%  ",
"  %%&&&&&&&&&&&&%%  $$$$%%&&&&&&&&&&&&%%$$$$  %%&&&&&&&&&&&&%%  ",
"  &&&&&&&&&&&&&&&&  $$%%&&&&&&&&&&&&&&&&%%$$  &&&&&&&&&&&&&&&&  ",
"  &&&&&&&&&&&&&&&&  $$%%&&&&&&&&&&&&&&&&%%$$  &&&&&&&&&&&&&&&&  ",
"  &&&&&&&&&&&&&&&&  $$&&&&&&&&&&&&&&&&&&&&$$  &&&&&&&&&&&&&&&&  ",
"  &&&&&&&&&&&&&&&&  $$&&&&&&&&&&&&&&&&&&&&$$  &&&&&&&&&&&&&&&&  ",
"  &&&&&&&&&&&&&&&&  $$&&&&&&&&&&&&&&&&&&&&$$  &&&&&&&&&&&&&&&&  ",
"  &&&&&&&&&&&&&&&&  $$&&&&&&&&&&&&&&&&&&&&$$  &&&&&&&&&&&&&&&&  ",
"  %%&&**==****&&%%  $$%%&&**&&**==****&&%%$$  %%&&****==**&&%%  ",
"  %%&&**==****&&%%  $$%%&&**&&**==****&&%%$$  %%&&****==**&&%%  ",
"..                                                            ..",
"..                                                            .."
};
